<?xml version="1.0" encoding="UTF-8"?>
<svg id="uuid-434a3b61-6e8e-4f33-b95a-4d81c43cd530" data-name="White copia" xmlns="http://www.w3.org/2000/svg" viewBox="0 0 500 500">
  <path d="M250,5C114.69,5,5,114.69,5,250s109.69,245,245,245,245-109.69,245-245S385.31,5,250,5ZM270.88,283.38l53.89,55.37c29.52,30.33,8.03,81.24-34.3,81.24h0c-12.92,0-25.29-5.22-34.3-14.48l-118.86-122.13c-18.08-18.58-18.08-48.18,0-66.76l118.86-122.13c9.01-9.26,21.38-14.48,34.3-14.48h0c42.32,0,63.82,50.91,34.3,81.24l-53.89,55.37c-18.08,18.58-18.08,48.18,0,66.76Z" style="fill: #fff;"/>
</svg>